# xmcd
#
# Track frame offsets: 
#        150
#        17070
#        37762
#        52256
#        72107
#        97459
#        116889
#        137259
#        154465
#        171726
#        187958
#        205564
#        220946
#        235642
#        250727
#        268368
#
# Disc length: 3800 seconds
#
# Revision: 1
# Processed by: cddbd v1.5.2PL0 Copyright (c) Steve Scherf et al.
# Submitted via: ExactAudioCopy v1.0b1
#
DISCID=ee0ed610
DTITLE=蔡琴 - 經典收藏 2
DYEAR=2006
DGENRE=Vocal
TTITLE0=不了情
TTITLE1=寒雨曲
TTITLE2=情人的眼淚
TTITLE3=三年
TTITLE4=癡癡的等
TTITLE5=恰似你的溫柔
TTITLE6=你的眼神
TTITLE7=我有一段情
TTITLE8=重相逢
TTITLE9=藍色的夢
TTITLE10=綠島小夜曲
TTITLE11=明月千里寄相思
TTITLE12=願嫁漢家郎
TTITLE13=魂縈舊夢
TTITLE14=癡情淚
TTITLE15=紅薔薇
EXTD=
EXTT0=
EXTT1=
EXTT2=
EXTT3=
EXTT4=
EXTT5=
EXTT6=
EXTT7=
EXTT8=
EXTT9=
EXTT10=
EXTT11=
EXTT12=
EXTT13=
EXTT14=
EXTT15=
PLAYORDER=
